<?xml version="1.0" standalone="no"?>
<!DOCTYPE svg PUBLIC "-//W3C//DTD SVG 20010904//EN"
 "http://www.w3.org/TR/2001/REC-SVG-20010904/DTD/svg10.dtd">
<svg version="1.0" xmlns="http://www.w3.org/2000/svg"
 width="1024.000000pt" height="1024.000000pt" viewBox="0 0 1024.000000 1024.000000"
 preserveAspectRatio="xMidYMid meet">
<metadata>
Created by potrace 1.14, written by Peter Selinger 2001-2017
</metadata>
<g transform="translate(0.000000,1024.000000) scale(0.100000,-0.100000)"
fill="#000000" stroke="none">
<path d="M0 5120 l0 -5120 5120 0 5120 0 0 5120 0 5120 -5120 0 -5120 0 0
-5120z m7037 3078 c-3 -8 -6 -5 -6 6 -1 11 2 17 5 13 3 -3 4 -12 1 -19z
m-2680 -189 c67 -30 120 -55 119 -56 -1 -1 -68 9 -150 22 -143 23 -196 42
-196 69 0 43 77 31 227 -35z m441 -146 c-10 -2 -28 -2 -40 0 -13 2 -5 4 17 4
22 1 32 -1 23 -4z m-120 -10 c-10 -2 -28 -2 -40 0 -13 2 -5 4 17 4 22 1 32 -1
23 -4z m-105 -10 c-7 -2 -19 -2 -25 0 -7 3 -2 5 12 5 14 0 19 -2 13 -5z m157
-13 c-43 -7 -41 -7 25 -9 84 -3 136 -19 65 -20 -33 -1 -41 -4 -30 -11 11 -7 3
-10 -30 -11 -44 -2 -45 -2 -10 -8 31 -6 27 -8 -35 -15 -38 -4 -97 -16 -130
-26 -33 -9 -69 -17 -80 -18 -46 0 -111 -15 -127 -29 -9 -8 -21 -12 -26 -9 -14
8 -43 -4 -36 -15 3 -5 19 -9 35 -9 17 0 28 -4 24 -9 -3 -5 5 -12 17 -14 20 -4
20 -4 -4 -6 -15 0 -30 -5 -33 -11 -3 -5 -16 -10 -28 -10 -15 0 -18 -3 -9 -8 7
-5 -21 -13 -70 -19 -82 -11 -83 -11 -170 24 -104 42 -121 62 -82 98 14 13 49
33 78 44 72 26 364 93 384 87 9 -3 53 -1 97 3 44 5 112 8 150 8 63 0 66 -1 25
-7z m1433 -17 c-7 -2 -21 -2 -30 0 -10 3 -4 5 12 5 17 0 24 -2 18 -5z m667
-13 c0 -11 -7 -20 -15 -20 -8 0 -15 9 -15 20 0 11 7 20 15 20 8 0 15 -9 15
-20z m-733 4 c-3 -3 -12 -4 -19 -1 -8 3 -5 6 6 6 11 1 17 -2 13 -5z m-40 -10
c-3 -3 -12 -4 -19 -1 -8 3 -5 6 6 6 11 1 17 -2 13 -5z m-72 -19 c-22 -8 -36
-14 -31 -14 4 -1 -2 -10 -15 -21 -19 -16 -10 -14 36 8 59 29 165 52 165 35 0
-4 -36 -19 -80 -32 -45 -13 -84 -29 -87 -34 -4 -7 1 -8 13 -3 10 4 42 12 69
17 28 5 59 12 70 15 15 4 16 3 6 -4 -8 -6 -10 -15 -6 -22 5 -8 4 -11 -3 -6 -6
3 -13 2 -16 -3 -3 -4 22 -12 57 -15 79 -9 149 -39 141 -60 -7 -18 -75 -41
-192 -66 -48 -10 -75 -19 -61 -19 37 -1 155 -39 212 -67 45 -23 65 -40 30 -27
-11 5 -14 3 -9 -6 5 -7 17 -10 28 -8 11 3 17 3 14 0 -8 -8 119 -93 138 -93 20
0 29 -17 15 -26 -8 -4 -9 -3 -5 4 4 7 2 12 -3 12 -6 0 -11 -3 -11 -7 0 -12 63
-73 76 -73 6 0 18 -7 25 -17 13 -15 12 -15 -10 -4 -19 11 -14 0 24 -54 26 -37
49 -77 51 -90 1 -13 5 -30 9 -37 4 -7 -2 -2 -13 12 -11 13 -19 27 -16 31 2 3
-5 14 -15 23 -35 32 -19 -11 21 -56 21 -24 38 -38 37 -33 -4 30 2 33 31 18 17
-8 36 -16 43 -17 7 -1 22 -7 34 -14 34 -19 48 -14 22 7 -13 10 -32 17 -42 15
-15 -3 -17 -1 -7 11 7 8 17 13 23 12 7 -1 11 4 9 11 -1 8 2 11 7 7 6 -3 8 -12
4 -20 -3 -8 -1 -15 5 -15 15 0 9 26 -11 48 -9 10 -17 24 -17 30 0 7 -5 12 -11
12 -5 0 -7 -5 -3 -12 4 -7 3 -8 -5 -4 -39 24 44 30 89 6 12 -6 20 -7 20 -1 0
12 15 9 60 -11 34 -14 216 -166 214 -177 -2 -10 36 -54 42 -48 8 8 -16 48 -25
42 -5 -2 -8 1 -7 8 2 20 -170 162 -239 198 -81 42 -122 65 -170 95 -38 23 -38
24 -10 18 17 -4 36 -11 43 -17 9 -7 11 -6 6 7 -3 9 -11 16 -18 17 -43 3 -123
37 -130 57 -9 21 39 14 140 -23 53 -19 100 -33 104 -30 5 3 12 0 16 -6 5 -8 3
-9 -6 -4 -9 6 -11 4 -6 -4 5 -7 14 -10 21 -8 8 4 11 -3 9 -18 -2 -19 2 -23 18
-20 12 3 18 2 15 -2 -12 -11 66 -59 88 -54 6 2 7 -1 2 -5 -4 -4 10 -26 30 -48
21 -22 29 -34 18 -26 -18 14 -19 14 -7 -2 7 -9 22 -15 34 -13 11 3 18 2 15 -2
-10 -10 13 -44 25 -37 7 4 8 2 4 -5 -4 -6 0 -23 8 -36 9 -14 13 -25 10 -25 -4
0 0 -8 8 -17 22 -26 29 -51 16 -59 -7 -5 -8 -2 -3 6 6 9 4 11 -5 5 -10 -6 -4
-16 21 -37 19 -16 28 -26 20 -22 -9 4 -12 2 -9 -7 3 -8 17 -13 31 -13 15 1 27
0 27 -1 0 -1 -60 -57 -132 -125 -73 -68 -175 -163 -226 -213 -51 -50 -94 -88
-95 -86 -2 2 -9 37 -16 77 -7 40 -15 71 -18 68 -3 -2 0 -28 6 -56 6 -28 11
-61 10 -73 0 -21 -1 -21 -9 -2 -8 18 -9 17 -9 -8 -1 -20 3 -26 12 -21 6 4 -1
-7 -17 -24 -34 -37 -49 -43 -20 -9 10 13 5 8 -13 -11 l-32 -34 6 32 c3 22 1
30 -6 25 -7 -4 -11 12 -11 48 0 107 -78 328 -138 393 -19 20 -102 151 -102
161 0 2 6 1 13 -3 9 -6 8 -3 -1 8 -8 10 -20 14 -30 11 -11 -5 -12 -8 -4 -11 8
-2 10 -8 4 -15 -7 -8 3 -42 28 -97 45 -102 76 -225 96 -375 8 -60 19 -137 24
-170 13 -78 13 -128 0 -120 -5 3 -10 2 -10 -3 0 -5 -64 -70 -142 -143 -79 -73
-133 -122 -120 -108 12 14 20 28 17 30 -2 3 0 21 5 40 5 19 14 53 20 77 6 23
14 42 18 42 9 0 8 -47 -1 -57 -4 -3 -7 -15 -7 -25 0 -10 -3 -18 -7 -18 -5 0
-8 -11 -8 -24 l0 -25 27 26 c15 14 25 30 22 34 -2 4 -1 10 4 13 4 2 9 22 10
42 2 21 5 41 8 44 3 3 5 -11 4 -30 -3 -49 -2 -52 16 -42 11 6 16 28 19 73 1
35 6 75 10 89 23 87 10 219 -27 272 -13 19 -15 29 -7 34 8 4 9 3 5 -4 -4 -7
-5 -12 -2 -12 16 0 12 20 -7 36 -18 16 -19 16 -8 2 8 -11 9 -18 3 -18 -6 0
-16 10 -23 21 -8 15 -8 19 0 15 6 -4 11 0 11 9 0 9 -5 13 -10 10 -11 -7 -26
22 -17 32 7 6 37 -22 37 -35 0 -5 10 -17 21 -28 18 -16 18 -12 -6 31 -15 28
-32 56 -37 62 -12 16 -31 6 -22 -10 4 -7 4 -9 0 -5 -4 3 -7 9 -7 12 0 3 -11
17 -24 32 -14 15 -22 30 -19 35 3 5 1 9 -3 9 -5 0 -17 14 -27 31 -30 51 -120
146 -111 118 9 -30 11 -32 -74 76 -68 86 -85 115 -58 99 8 -5 8 -2 -2 9 -15
18 -26 23 -16 7 11 -18 -1 -11 -21 12 -12 14 -14 18 -4 13 8 -4 13 -6 10 -3
-86 83 -145 129 -182 139 -50 15 -97 19 -103 10 -2 -4 6 -8 17 -8 11 -1 28 -9
37 -17 10 -9 20 -14 22 -11 3 2 6 -6 6 -18 2 -17 0 -19 -7 -7 -5 8 -10 12 -10
7 0 -4 -11 0 -24 8 -20 13 -24 14 -29 1 -4 -10 0 -12 15 -8 14 3 19 1 14 -6
-4 -7 -2 -12 4 -12 6 0 9 -4 5 -10 -3 -5 -24 -1 -51 10 -96 42 -195 53 -404
47 -159 -4 -203 -8 -235 -23 -22 -10 -48 -21 -58 -26 -35 -15 -12 9 71 76 102
82 138 104 227 144 39 17 65 32 59 32 -16 0 -93 -25 -139 -46 -22 -10 -43 -18
-47 -18 -4 -1 -13 -7 -19 -13 -7 -7 -18 -13 -24 -13 -5 -1 -26 -14 -45 -30
-19 -17 -39 -30 -45 -30 -6 0 -7 3 0 8 17 12 41 47 28 38 -7 -4 -13 -5 -13 -3
0 11 118 76 323 177 125 62 226 115 224 116 -4 5 -96 -31 -154 -58 -23 -11
-47 -17 -54 -12 -8 5 -10 3 -4 -6 6 -10 4 -12 -7 -7 -9 3 -24 0 -34 -7 -22
-15 -54 -17 -54 -4 0 5 10 7 23 4 12 -3 16 -3 9 0 -6 3 -9 11 -6 16 4 7 2 8
-4 4 -7 -4 -12 -1 -12 9 0 9 4 14 9 11 4 -3 19 4 32 15 31 27 235 126 274 133
l30 6 -27 -12 c-16 -7 -28 -15 -28 -20 0 -4 -5 -8 -11 -8 -6 0 -22 -9 -36 -20
-27 -21 -25 -27 5 -10 42 24 292 130 342 145 30 9 60 18 65 20 6 2 17 3 25 3
8 0 -3 -6 -25 -13z m1025 -2 c0 -8 -5 -13 -12 -11 -18 6 -21 25 -3 25 8 0 15
-7 15 -14z m-2501 -67 c-2 -2 -15 -9 -29 -15 -24 -11 -24 -11 -6 3 16 13 49
24 35 12z m273 -23 c-13 -3 -19 -9 -16 -15 4 -7 2 -8 -4 -4 -6 4 -62 -3 -123
-14 -61 -12 -113 -19 -116 -17 -9 9 212 55 262 54 16 0 16 -1 -3 -4z m-1037
-144 c112 -15 135 -28 40 -22 -52 4 -110 0 -166 -11 -131 -25 -194 -19 -155
14 37 30 148 38 281 19z m1103 4 c-10 -2 -26 -2 -35 0 -10 3 -2 5 17 5 19 0
27 -2 18 -5z m-79 -13 c41 -6 102 -18 135 -27 54 -15 58 -18 36 -25 -16 -5 -9
-6 20 -2 24 3 41 2 37 -3 -4 -4 -105 -7 -225 -6 -190 0 -202 -1 -97 -7 66 -4
131 -8 145 -10 24 -2 23 -3 -5 -10 -31 -7 -141 -5 -210 4 -25 3 -31 3 -16 -2
16 -5 -1 -8 -50 -8 -47 -1 -119 -12 -199 -32 -68 -17 -126 -29 -128 -28 -3 4
108 42 173 60 11 3 -9 4 -45 1 l-65 -3 35 15 c39 18 44 20 63 22 8 1 7 4 -3
11 -11 7 -11 10 -2 10 7 0 11 4 8 9 -3 5 13 11 37 14 23 3 62 10 87 15 61 13
179 13 269 2z m154 3 c-7 -2 -21 -2 -30 0 -10 3 -4 5 12 5 17 0 24 -2 18 -5z
m-756 -17 c1 -1 -89 -19 -200 -39 -203 -38 -248 -42 -321 -29 l-40 7 29 13
c32 15 239 36 290 30 19 -2 31 0 29 4 -5 8 56 13 119 10 20 -1 37 2 37 8 0 8
45 5 57 -4z m800 8 c-3 -3 -12 -4 -19 -1 -8 3 -5 6 6 6 11 1 17 -2 13 -5z m40
-10 c-3 -3 -12 -4 -19 -1 -8 3 -5 6 6 6 11 1 17 -2 13 -5z m194 -94 c-12 -11
-27 -17 -32 -14 -14 8 0 24 15 18 8 -3 17 -1 21 5 3 6 9 11 13 11 4 -1 -4 -9
-17 -20z m-358 3 c-7 -2 -19 -2 -25 0 -7 3 -2 5 12 5 14 0 19 -2 13 -5z
m-1339 -38 c-55 -18 -141 -53 -190 -78 -49 -24 -102 -48 -119 -51 -16 -4 -38
-9 -48 -12 -17 -5 -17 -4 -4 23 38 73 78 91 272 124 206 35 209 34 89 -6z
m106 -6 c-8 -5 -43 -26 -77 -47 -63 -37 -353 -291 -446 -389 -27 -29 -55 -53
-61 -53 -5 0 10 21 35 48 45 46 166 199 139 175 -16 -15 -30 -17 -30 -4 0 18
104 123 159 160 73 50 112 69 191 97 68 25 119 32 90 13z m3131 -16 c13 -16
12 -17 -3 -4 -10 7 -18 15 -18 17 0 8 8 3 21 -13z m40 -30 c13 -16 12 -17 -3
-4 -10 7 -18 15 -18 17 0 8 8 3 21 -13z m-207 -19 c3 -8 2 -12 -4 -9 -6 3 -10
10 -10 16 0 14 7 11 14 -7z m-3082 -67 c-12 -13 -19 -27 -15 -32 5 -4 2 -5 -6
0 -10 6 -12 4 -7 -4 6 -10 12 -9 24 2 26 22 84 49 115 53 35 5 34 -2 -3 -21
-17 -9 -28 -20 -25 -24 2 -5 -3 -15 -13 -22 -15 -13 -16 -12 -3 4 18 23 -1 22
-23 -2 -16 -17 -15 -18 8 -16 14 2 30 6 35 10 15 9 14 -8 -1 -23 -7 -7 -8 -12
-2 -12 6 0 15 5 21 11 19 19 6 -42 -14 -65 -29 -32 -45 -74 -30 -79 8 -3 7
-10 -5 -24 -10 -11 -18 -27 -18 -36 0 -9 -5 -17 -12 -17 -6 0 -8 -3 -5 -7 4
-3 -2 -20 -12 -37 -41 -67 -92 -176 -96 -203 -4 -22 1 -18 21 21 19 35 28 45
34 36 5 -8 4 -23 -3 -34 -6 -12 -10 -25 -9 -29 1 -5 -2 -6 -8 -2 -5 3 -10 -2
-10 -11 0 -9 -11 -32 -25 -50 -27 -35 -75 -135 -95 -196 -6 -21 -16 -40 -21
-43 -5 -4 -9 -14 -10 -23 0 -9 -11 -39 -24 -67 -15 -31 -23 -41 -21 -26 2 14
-4 38 -12 54 -11 22 -13 49 -9 106 6 78 37 234 57 287 15 39 8 31 -60 -77 -34
-51 -70 -120 -82 -153 -12 -33 -24 -54 -26 -48 -3 11 10 84 23 127 3 11 -3 3
-15 -17 -11 -21 -22 -38 -25 -38 -7 0 31 103 59 157 14 29 26 61 26 72 0 24
37 92 99 184 42 61 57 86 83 141 5 10 6 16 1 13 -5 -3 -15 -2 -23 3 -11 7 -8
11 14 20 16 6 26 13 22 17 -9 10 25 44 37 36 5 -3 7 -1 4 4 -4 6 3 19 16 29
12 10 16 12 10 4 -21 -23 -15 -35 7 -15 11 10 18 21 15 23 -5 6 44 62 54 62 2
0 -5 -10 -17 -23z m3712 -39 c22 -32 20 -38 -13 -38 -30 0 -66 34 -55 52 10
16 53 8 68 -14z m-3899 -158 c-21 -16 -41 -30 -44 -30 -11 1 59 60 71 60 6 0
-6 -13 -27 -30z m-58 -65 c0 -8 -4 -12 -9 -9 -5 3 -6 10 -3 15 9 13 12 11 12
-6z m-12 -25 c4 -6 1 -9 -6 -8 -6 2 -14 -3 -17 -11 -3 -9 0 -11 8 -6 7 5 -24
-41 -70 -101 -45 -60 -85 -114 -87 -121 -3 -7 -10 -10 -16 -6 -5 3 -7 1 -3 -5
3 -6 1 -17 -6 -24 -20 -21 -37 -50 -49 -81 -9 -22 -14 -26 -21 -15 -7 9 -8 7
-5 -10 3 -12 2 -20 -2 -18 -9 6 -63 -93 -56 -104 3 -4 -2 -11 -11 -14 -13 -5
-14 -9 -5 -20 10 -11 3 -38 -31 -123 -56 -140 -56 -141 -8 -53 23 41 39 67 35
57 -3 -11 -8 -31 -11 -45 l-5 -27 15 25 c10 16 15 19 16 10 0 -12 2 -13 9 -1
13 20 24 -4 15 -32 -12 -35 -14 -47 -15 -141 -1 -65 2 -90 12 -97 8 -5 10 -9
4 -9 -5 0 -10 -13 -11 -30 -1 -18 3 -27 9 -23 7 4 8 -1 3 -13 -5 -13 -4 -16 3
-9 13 13 104 229 127 302 12 37 20 51 22 38 2 -11 11 -25 19 -32 14 -11 14
-22 -1 -117 -19 -123 -20 -137 -6 -116 11 17 13 1 4 -25 -5 -13 -8 -14 -15 -3
-7 10 -9 9 -9 -4 0 -9 4 -19 9 -22 11 -7 35 49 27 63 -3 5 5 31 19 58 21 41
25 44 25 22 0 -45 -39 -219 -72 -319 -42 -128 -69 -187 -116 -257 -49 -73 -84
-141 -133 -263 -21 -52 -39 -90 -39 -85 0 6 -7 -1 -15 -15 -14 -25 -20 -17
-15 24 1 11 -3 15 -9 12 -6 -4 -11 -14 -11 -22 0 -8 -4 -14 -9 -14 -5 0 -7 -8
-5 -17 2 -10 -5 -29 -16 -43 l-19 -25 5 25 c5 24 5 24 -8 5 -17 -27 -37 -30
-31 -5 3 12 0 20 -7 20 -10 0 -11 15 -5 63 10 71 13 307 5 302 -3 -2 -12 0
-20 6 -8 5 -10 9 -5 9 6 0 11 54 11 138 1 75 9 180 18 232 18 110 85 332 98
324 4 -3 6 1 3 8 -7 17 29 111 39 101 4 -4 4 0 1 9 -4 9 0 18 9 21 9 4 16 12
16 19 0 9 -3 8 -10 -2 -5 -8 -10 -10 -10 -5 0 13 20 43 20 30 0 -13 20 17 20
30 0 6 -5 3 -10 -5 -20 -31 -8 7 16 50 14 25 23 36 20 25 l-6 -20 15 20 c9 11
14 28 11 38 -3 14 -1 16 8 7 11 -8 13 -4 10 21 -3 26 -2 29 10 20 12 -10 14
-7 12 14 -2 14 -1 23 2 20 7 -6 38 37 34 49 -1 4 5 15 15 23 11 9 12 12 3 8
-12 -5 -12 -4 1 7 16 13 19 19 19 39 0 5 4 8 8 5 5 -3 9 0 9 7 0 20 124 177
134 171 5 -3 8 0 7 8 -2 7 3 12 10 10 8 -1 11 1 8 6 -2 4 -1 14 5 22 6 11 9
12 9 2 0 -7 5 -10 10 -7 6 4 8 11 4 16 -3 5 0 16 6 24 15 18 17 18 25 5z m307
-72 c-3 -12 -7 -17 -10 -10 -2 7 -8 10 -13 6 -10 -6 -12 9 -2 19 15 16 31 6
25 -15z m-71 -101 c-10 -9 -11 -8 -5 6 3 10 9 15 12 12 3 -3 0 -11 -7 -18z
m2769 -287 c3 -37 2 -66 -2 -63 -5 2 -8 -4 -8 -13 0 -38 -12 -1 -20 58 -7 59
3 109 18 93 4 -4 9 -37 12 -75z m96 -57 c4 -25 4 -102 1 -172 -4 -101 -12
-148 -37 -236 -18 -60 -34 -120 -37 -132 -3 -13 -9 -23 -14 -23 -5 0 -9 -4 -9
-9 0 -5 -12 -22 -27 -38 l-28 -29 -2 120 c-1 67 -4 157 -7 201 -2 44 -1 62 2
40 6 -35 9 -29 20 60 14 100 28 138 42 114 4 -6 11 17 15 52 16 140 63 170 81
52z m-381 -71 c31 -55 105 -241 105 -261 0 -3 -11 12 -23 34 -13 22 -49 75
-80 118 -56 78 -75 127 -62 166 9 29 18 21 60 -57z m213 12 c-3 -14 -7 -10
-16 16 -12 32 -11 34 4 19 9 -9 14 -25 12 -35z m-74 -84 c9 -38 15 -88 14
-112 -1 -42 -1 -41 -7 11 -4 39 -10 55 -22 57 -14 1 -15 -4 -9 -30 18 -75 18
-87 1 -36 -26 75 -45 184 -37 207 7 17 9 17 26 -5 10 -12 26 -54 34 -92z m573
68 c-3 -8 -6 -5 -6 6 -1 11 2 17 5 13 3 -3 4 -12 1 -19z m-3577 -65 c-11 -17
-11 -17 -6 0 3 10 7 26 7 35 1 15 2 15 6 0 2 -10 -1 -25 -7 -35z m3577 25 c-3
-8 -6 -5 -6 6 -1 11 2 17 5 13 3 -3 4 -12 1 -19z m-32 -17 c3 -5 2 -12 -3 -15
-5 -3 -9 1 -9 9 0 17 3 19 12 6z m-468 -83 c-3 -8 -6 -5 -6 6 -1 11 2 17 5 13
3 -3 4 -12 1 -19z m483 18 c0 -2 -8 -10 -17 -17 -16 -13 -17 -12 -4 4 13 16
21 21 21 13z m-2742 -117 c-2 -6 -65 -43 -139 -82 -111 -59 -279 -168 -279
-181 0 -2 35 14 78 35 80 40 132 55 132 38 0 -5 -14 -18 -30 -28 -17 -10 -55
-42 -85 -70 -30 -29 -55 -49 -55 -44 0 4 -8 -6 -17 -24 -10 -17 -40 -55 -67
-84 -27 -30 -43 -45 -35 -34 11 17 11 18 -1 8 -8 -7 -15 -19 -16 -28 -1 -8
-12 -28 -24 -45 -41 -57 -169 -338 -184 -401 -8 -35 -21 -111 -30 -169 -36
-235 -68 -379 -80 -368 -16 15 -21 61 -21 177 1 102 2 103 -29 -32 -4 -15 -11
-25 -16 -22 -6 4 -8 10 -6 14 3 4 1 13 -5 21 -6 11 -9 7 -10 -15 -1 -16 -1
-34 0 -40 1 -5 -10 2 -23 17 -22 25 -24 25 -29 7 -3 -10 -1 -19 4 -19 5 0 9
-5 9 -11 0 -5 -4 -7 -10 -4 -5 3 -10 -2 -10 -12 0 -14 -8 -19 -30 -21 -24 -2
-30 2 -30 18 0 11 -6 20 -14 20 -34 0 -45 151 -18 250 47 175 173 419 281 541
21 24 36 49 35 54 -2 6 16 30 41 54 24 24 42 47 40 51 -6 10 102 105 180 157
58 39 171 125 208 157 9 9 17 12 17 7 0 -5 -12 -19 -27 -30 -48 -36 5 -11 127
61 63 37 122 72 130 77 21 13 42 13 38 0z m-1311 -109 c0 -16 -4 -30 -9 -30
-5 0 -7 -4 -4 -8 2 -4 -3 -26 -13 -47 -21 -45 -61 -95 -61 -75 0 10 81 190 86
190 0 0 1 -13 1 -30z m1743 -66 c0 -8 -22 -83 -50 -165 -50 -149 -66 -218 -30
-125 21 53 37 75 26 36 -15 -58 -35 -172 -42 -241 -7 -77 0 -90 14 -24 5 28
13 39 29 41 33 5 43 -23 43 -123 0 -326 51 -743 91 -743 5 0 9 -15 7 -34 -2
-32 -3 -33 -30 -24 -15 6 -25 14 -22 19 3 5 -1 6 -9 3 -8 -3 -37 17 -68 47
-30 29 -58 52 -62 50 -5 -1 -6 3 -3 8 7 11 -19 33 -28 23 -4 -4 -6 -2 -5 3 4
13 -25 68 -43 83 -12 9 -14 4 -11 -29 2 -22 -1 -38 -6 -35 -4 3 -6 -13 -4 -35
3 -26 1 -39 -5 -35 -12 7 -23 -19 -16 -39 4 -8 2 -15 -3 -15 -5 0 -17 22 -28
50 -12 32 -22 45 -27 37 -5 -7 -8 -2 -8 15 0 15 -4 29 -8 32 -5 3 -6 -15 -2
-39 4 -28 3 -42 -3 -38 -6 4 -7 -5 -3 -23 7 -28 6 -28 -15 6 -13 19 -35 57
-50 84 l-27 49 -15 -24 c-8 -13 -35 -56 -60 -95 -30 -48 -42 -76 -36 -85 4 -8
8 -28 7 -46 -1 -18 4 -38 10 -46 6 -7 14 -40 17 -73 9 -91 35 -194 63 -247 13
-26 26 -46 28 -44 2 2 -9 48 -25 103 -33 110 -48 187 -33 165 12 -17 23 68 21
165 -3 142 19 115 77 -96 19 -69 48 -154 65 -190 42 -90 109 -191 122 -183 5
3 7 1 4 -4 -7 -11 10 -31 28 -32 6 -1 10 -6 10 -11 0 -14 27 -30 37 -24 5 3 7
0 6 -8 -2 -7 5 -12 14 -12 10 1 15 -2 12 -7 -6 -10 116 -72 221 -114 147 -58
182 -86 146 -119 -37 -33 -202 -40 -296 -11 -11 3 5 -6 35 -20 92 -44 170 -66
270 -78 68 -8 86 -13 65 -17 -16 -3 52 -9 152 -13 102 -4 217 -15 260 -24 110
-23 522 -23 490 0 -8 6 -4 7 10 4 12 -3 23 -2 25 2 2 3 29 18 61 34 72 34 145
101 179 164 15 27 38 88 52 138 27 93 51 130 78 120 35 -14 40 -55 19 -165
-12 -57 -19 -106 -17 -108 6 -5 30 44 46 91 24 77 20 26 -8 -99 -16 -71 -35
-155 -41 -186 -7 -31 -23 -73 -36 -92 -22 -32 -22 -36 -7 -36 10 0 28 7 40 16
44 31 20 4 -55 -62 -43 -38 -77 -74 -77 -81 1 -7 -2 -10 -7 -7 -5 3 -16 -2
-25 -11 -9 -9 -23 -14 -31 -11 -8 3 -11 1 -8 -4 3 -6 -2 -10 -11 -10 -10 0
-15 -3 -11 -6 8 -8 168 56 163 65 -2 3 12 17 31 30 26 17 34 19 30 8 -4 -12
-1 -14 11 -11 10 4 7 -2 -8 -14 -14 -12 -25 -26 -25 -33 0 -7 -8 -13 -19 -15
-24 -3 -106 -47 -106 -56 0 -4 5 -10 10 -13 6 -4 8 -11 5 -16 -3 -5 1 -6 10
-2 13 5 14 7 3 14 -9 6 -9 9 -1 9 21 0 25 -21 7 -41 -9 -10 -27 -19 -39 -19
-13 0 -28 -7 -35 -15 -7 -8 -18 -15 -24 -15 -7 0 -50 -18 -97 -41 -46 -22
-122 -49 -169 -59 -47 -11 -132 -31 -190 -45 -88 -21 -129 -25 -249 -25 -82 0
-186 7 -243 16 -55 9 -102 13 -106 10 -3 -3 -12 0 -21 8 -26 23 -152 67 -174
60 -13 -4 -17 -2 -13 5 5 7 1 8 -9 4 -24 -8 4 -25 29 -17 11 4 16 2 12 -4 -3
-5 16 -12 46 -16 29 -4 47 -11 40 -15 -13 -8 51 -36 80 -35 10 1 14 -4 11 -12
-5 -13 -11 -13 -98 2 -22 4 -51 8 -65 10 -14 2 -36 6 -50 10 -46 12 -70 13
-63 2 15 -26 -210 28 -263 62 -18 11 -18 11 1 5 46 -16 48 -15 15 3 -19 11
-55 38 -80 59 -25 22 -79 63 -120 92 -117 81 -183 140 -241 215 -30 38 -91
109 -136 157 -60 65 -94 113 -126 178 -25 49 -47 88 -49 85 -2 -2 -10 13 -17
34 -8 20 -21 55 -31 77 -10 22 -20 47 -23 55 -5 13 -6 13 -6 0 -1 -8 5 -27 13
-41 7 -15 28 -70 46 -124 33 -100 32 -115 -7 -121 -21 -4 -105 75 -96 89 4 6
1 7 -6 2 -9 -5 -6 -14 13 -34 14 -15 26 -32 26 -39 0 -6 8 -16 18 -21 21 -11
55 -98 41 -106 -5 -4 -7 -12 -4 -18 3 -7 -2 -1 -12 12 -26 35 -46 84 -30 74 6
-4 2 6 -11 21 -12 16 -22 33 -22 38 0 6 -19 39 -42 75 -24 35 -43 70 -43 76
-1 7 -6 11 -12 10 -7 -2 -10 6 -8 17 2 12 0 18 -4 15 -10 -6 -23 23 -16 34 2
4 -2 8 -10 8 -8 0 -12 -4 -9 -9 3 -4 -1 -11 -10 -14 -8 -3 -14 -14 -13 -24 1
-10 5 -16 9 -14 5 3 6 10 3 15 -4 5 -1 9 5 9 6 0 14 -8 17 -17 4 -10 16 -34
28 -53 12 -19 21 -45 20 -57 -1 -18 1 -20 12 -12 10 9 13 8 13 -4 0 -23 -16
-29 -30 -12 -7 8 -9 15 -5 15 5 0 0 8 -9 19 -9 10 -18 28 -19 40 -1 12 -10 30
-21 39 -11 9 -16 12 -13 5 4 -6 2 -15 -4 -19 -7 -4 -9 -3 -5 4 3 6 2 13 -3 16
-5 4 -7 18 -5 34 3 15 5 34 5 42 -2 37 -12 119 -20 165 -24 122 -24 182 -1
276 17 68 25 87 32 75 10 -17 28 -13 28 7 0 7 -4 6 -11 -3 -8 -11 -9 -6 -4 20
4 19 10 94 15 165 4 72 12 141 18 155 7 16 11 19 11 8 1 -9 4 -25 7 -35 5 -15
4 -16 -6 -3 -10 13 -11 12 -6 -3 3 -10 7 -33 7 -50 1 -35 1 -35 29 93 7 34 8
15 4 -75 -9 -211 -11 -344 -3 -356 11 -19 19 18 29 157 12 155 30 285 42 299
4 5 8 19 8 31 0 13 4 25 9 28 8 5 36 148 34 173 0 7 4 10 10 6 6 -4 8 0 4 10
-3 9 2 41 13 72 11 31 15 53 11 50 -5 -2 -11 4 -14 15 -3 11 -1 18 4 14 5 -3
10 2 10 10 1 16 4 28 9 44 1 4 2 11 1 15 -2 14 20 48 28 42 5 -2 15 3 22 12
10 12 10 14 2 9 -18 -10 -16 4 5 28 16 20 16 20 -1 7 -20 -16 -137 -187 -137
-202 0 -5 -4 -9 -9 -9 -11 0 5 56 21 76 9 13 19 48 21 77 1 9 5 17 9 17 4 0 8
6 8 13 0 24 135 181 214 250 44 37 107 84 141 102 105 59 114 44 24 -42 -33
-32 -65 -66 -71 -76 -9 -18 -8 -18 19 -1 15 10 42 29 60 42 l32 24 -9 -33 c-5
-17 -17 -41 -27 -52 -10 -11 -12 -17 -4 -12 10 6 12 2 7 -16 -6 -21 -5 -22 6
-8 24 28 99 78 129 84 24 6 29 12 30 38 0 18 3 26 6 19 2 -6 9 -10 14 -6 12 7
11 -38 -3 -94 -15 -65 -47 -108 -185 -253 -132 -140 -153 -170 -133 -194 16
-19 26 -13 34 21 4 15 14 33 21 41 13 13 15 5 15 -58 l0 -73 29 28 c15 15 34
38 42 52 7 14 28 42 46 61 18 19 31 39 28 44 -4 5 -3 9 2 9 4 0 21 17 38 38
18 23 22 31 10 23 -11 -8 -2 4 20 26 22 23 43 39 46 38 3 -2 3 10 1 27 -3 20
-1 29 6 24 6 -3 12 -1 15 6 2 7 3 1 1 -14 -2 -15 0 -30 5 -32 5 -3 6 -23 4
-45 -3 -22 0 -42 6 -46 6 -3 11 0 11 7 1 84 13 181 30 246 23 92 77 205 93
195 5 -3 7 -1 4 5 -4 5 12 34 34 64 59 76 89 97 89 62z m-507 -102 c-12 -9
-50 -39 -85 -65 -35 -27 -97 -82 -138 -123 -41 -40 -77 -69 -78 -64 -2 6 -9 7
-14 4 -7 -4 -8 -2 -4 4 4 6 13 9 20 6 14 -6 42 23 32 33 -3 4 13 26 36 50 23
24 38 43 34 43 -5 0 9 13 30 30 22 16 45 34 52 40 6 6 12 8 12 4 0 -4 8 0 18
8 24 22 74 47 92 47 11 0 9 -5 -7 -17z m-609 -150 c3 -5 -10 -24 -29 -42 -39
-37 -43 -16 -5 25 26 28 27 28 34 17z m-82 -74 c-7 -7 -8 -17 -2 -28 7 -12 -1
-25 -30 -54 -22 -21 -37 -31 -36 -21 1 8 8 21 14 27 19 19 14 32 -5 17 -10 -7
0 6 22 29 21 23 41 42 44 42 3 0 0 -5 -7 -12z m248 -408 c-6 -11 -13 -20 -16
-20 -2 0 0 9 6 20 6 11 13 20 16 20 2 0 0 -9 -6 -20z m336 0 c0 -12 -4 -16 -9
-11 -5 5 -6 14 -3 20 10 15 12 14 12 -9z m3359 -532 c-4 -16 -2 -18 10 -8 12
10 27 1 80 -46 l66 -57 -3 -93 c-2 -50 -5 -90 -7 -88 -3 2 -12 -10 -20 -28
l-15 -33 -6 65 -5 65 -7 -80 c-4 -44 -17 -111 -31 -150 -22 -65 -24 -68 -30
-38 -3 17 -4 44 -1 59 2 16 1 25 -3 19 -5 -5 -14 -11 -21 -13 -10 -2 -12 5 -7
30 4 18 4 30 1 27 -4 -3 -11 -26 -16 -50 -7 -35 -8 -25 -5 51 2 60 1 86 -5 70
-7 -21 -8 -16 -9 25 -1 28 -8 61 -17 75 -15 25 -15 25 -9 -10 2 -19 2 -28 -2
-20 -3 8 -14 -19 -25 -64 -18 -77 -50 -146 -69 -146 -18 0 -48 -78 -58 -150
-5 -41 -8 -76 -6 -78 6 -7 64 114 91 191 39 109 48 107 40 -5 -3 -54 -4 -98
-2 -98 3 0 10 18 16 40 6 22 15 40 20 40 18 0 20 -39 5 -109 -8 -40 -12 -84
-9 -99 5 -22 3 -24 -6 -12 -9 12 -10 9 -5 -13 3 -16 2 -26 -2 -24 -4 3 -9 -16
-10 -41 -7 -178 -131 -421 -303 -593 -127 -127 -210 -174 -210 -119 0 24 -18
36 -33 21 -14 -14 -40 -15 -32 -1 4 6 10 8 15 5 5 -3 4 11 -1 30 -8 27 -7 43
5 66 8 17 12 43 9 62 -5 35 24 121 59 169 11 16 18 31 16 34 -5 5 -61 -74 -64
-91 -6 -27 -56 -142 -79 -181 -14 -24 -34 -48 -45 -54 -11 -6 -20 -17 -20 -25
0 -8 -8 -12 -19 -10 -11 2 -22 -3 -25 -11 -3 -8 -11 -14 -18 -14 -9 0 -8 3 2
10 12 8 12 10 1 10 -12 0 -12 3 1 18 8 9 18 26 22 37 6 17 4 16 -19 -5 -21
-20 -25 -21 -19 -6 5 14 4 17 -5 11 -17 -10 3 30 33 65 11 14 2 8 -21 -14 -39
-36 -71 -42 -59 -10 3 9 0 11 -12 7 -15 -6 -15 -5 -3 10 7 9 17 15 21 12 5 -3
12 0 16 6 4 8 3 9 -4 5 -17 -11 -15 4 9 49 l21 40 -47 -50 c-26 -27 -41 -41
-34 -31 8 11 13 27 11 36 -1 9 6 25 18 35 14 13 17 22 10 30 -7 9 -3 21 12 41
13 15 16 24 8 19 -12 -6 -11 -4 1 11 9 10 24 35 34 54 l17 35 -33 -30 c-19
-16 -28 -23 -21 -15 20 24 13 34 -10 14 -14 -12 -10 -4 9 21 35 45 85 137 127
235 27 63 27 64 4 45 -13 -11 -2 3 23 30 25 28 61 76 80 108 19 33 42 63 53
69 17 9 18 7 14 -26 -5 -46 3 -46 23 2 9 20 51 81 93 135 43 53 102 136 132
184 55 87 62 95 44 49 -13 -36 -4 -33 21 7 12 17 18 23 15 12 -11 -30 -19
-105 -13 -105 8 0 24 57 42 147 10 54 30 102 76 184 l62 111 37 -37 c25 -25
37 -44 35 -57z m-4008 -80 c-3 -8 -6 -5 -6 6 -1 11 2 17 5 13 3 -3 4 -12 1
-19z m4189 -73 c1 -8 -1 -17 -5 -19 -4 -3 -7 6 -7 19 0 25 8 25 12 0z m320 10
c-1 -8 -5 -17 -8 -21 -5 -4 -4 16 1 34 3 9 9 -1 7 -13z m-1391 -5 c7 -12 -12
-40 -26 -40 -10 0 -12 34 -2 43 9 10 21 9 28 -3z m1120 -70 c4 -24 3 -30 -3
-21 -8 11 -11 10 -14 -5 -3 -10 -6 4 -9 33 -3 40 -1 49 7 40 7 -7 15 -28 19
-47z m30 -24 c0 -19 -3 -32 -7 -29 -14 8 -8 63 6 63 1 0 1 -15 1 -34z m83 -39
c28 -26 27 -48 -9 -182 -16 -60 -30 -116 -31 -123 -1 -8 -7 -7 -21 5 -11 10
-17 12 -13 6 4 -7 2 -13 -3 -13 -6 0 -18 -18 -27 -40 -9 -22 -22 -40 -29 -40
-18 0 -25 35 -14 73 8 27 38 233 42 289 1 9 4 15 6 12 6 -6 7 -11 10 -69 l2
-40 19 55 c11 30 20 65 20 78 0 25 9 23 48 -11z m-3541 1 c-3 -8 -6 -5 -6 6
-1 11 2 17 5 13 3 -3 4 -12 1 -19z m3420 -35 c-3 -10 -5 -4 -5 12 0 17 2 24 5
18 2 -7 2 -21 0 -30z m-10 -115 c-3 -8 -6 -5 -6 6 -1 11 2 17 5 13 3 -3 4 -12
1 -19z m-1197 -37 c0 -17 -4 -33 -10 -36 -11 -7 -25 39 -15 54 12 21 25 11 25
-18z m-1759 2 c13 -16 12 -17 -3 -4 -17 13 -22 21 -14 21 2 0 10 -8 17 -17z
m153 -43 c6 0 23 -6 38 -14 15 -8 38 -13 52 -12 18 2 30 -4 42 -22 l16 -25
-35 7 c-66 12 -137 37 -137 47 0 6 5 7 12 3 7 -4 8 -3 4 5 -4 6 -17 9 -29 6
-12 -2 -16 -2 -9 1 10 5 9 11 -5 27 -17 20 -17 20 11 -1 16 -12 34 -22 40 -22z
m78 -67 c76 -17 112 -38 101 -57 -3 -6 -3 -8 2 -4 4 4 26 -8 49 -26 86 -70
191 -106 306 -106 87 0 123 -16 104 -47 -23 -38 -261 -58 -394 -34 -107 20
-311 71 -329 82 -13 9 -13 9 4 4 11 -4 45 -9 75 -11 30 -2 73 -6 95 -8 l40 -5
-47 15 c-68 22 -167 74 -143 75 11 0 14 3 7 6 -6 2 -9 9 -6 14 3 6 0 18 -7 27
-11 13 -9 13 8 -2 13 -11 29 -16 39 -12 9 3 23 1 30 -5 8 -6 14 -9 14 -5 0 3
11 1 25 -4 37 -14 30 -1 -7 15 -23 10 -27 14 -13 14 21 0 77 -27 60 -30 -5 0
24 -7 65 -14 41 -8 76 -12 78 -10 2 2 -23 11 -55 20 -55 16 -143 60 -143 71 0
3 8 3 18 0 9 -2 33 -7 52 -10 25 -4 18 1 -25 17 -66 24 -149 66 -180 91 -11 9
8 3 42 -14 34 -16 95 -38 135 -47z m2768 -68 c-16 -47 -23 -40 -8 8 6 20 13
35 16 33 2 -3 -1 -21 -8 -41z m-2995 -85 c3 -6 -1 -7 -9 -4 -18 7 -21 14 -7
14 6 0 13 -4 16 -10z m-1395 -278 c63 -63 161 -152 217 -199 56 -47 100 -89
98 -93 -5 -8 77 -80 91 -80 4 0 -14 16 -40 36 -25 21 -44 39 -42 42 7 7 166
-129 161 -138 -2 -4 13 -12 34 -19 38 -11 131 -59 131 -67 0 -2 -21 6 -47 19
-27 14 -73 32 -103 42 -93 30 -290 123 -355 168 -91 63 -165 143 -148 160 3 4
-21 44 -54 89 -71 98 -88 129 -119 222 -34 99 -29 102 19 11 33 -65 63 -101
157 -193z m-443 188 c8 -16 9 -26 2 -28 -15 -6 -59 27 -59 44 0 25 43 13 57
-16z m3813 -13 c0 -2 -10 -12 -22 -23 l-23 -19 19 23 c18 21 26 27 26 19z m1
-44 c-5 -10 -25 -34 -43 -53 -18 -20 -30 -31 -25 -26 11 15 8 28 -5 20 -7 -4
-8 -3 -4 5 4 6 11 9 16 6 5 -3 21 10 36 30 28 37 41 46 25 18z m-841 -36 c0
-35 -101 -83 -243 -117 -107 -26 -125 -25 -57 3 30 13 98 46 150 75 94 51 150
65 150 39z m-2139 -44 c13 -16 12 -17 -3 -4 -10 7 -18 15 -18 17 0 8 8 3 21
-13z m50 -20 c13 -16 12 -17 -3 -4 -10 7 -18 15 -18 17 0 8 8 3 21 -13z m6
-45 c6 -13 14 -34 17 -48 5 -24 4 -24 -9 -6 -8 11 -15 27 -15 36 0 9 -5 21
-12 28 -7 7 -8 12 -2 12 6 0 16 -10 21 -22z m1720 -34 c-3 -3 -12 -4 -19 -1
-8 3 -5 6 6 6 11 1 17 -2 13 -5z m-1652 -54 c13 -26 14 -29 0 -24 -8 4 -15 13
-15 21 0 8 -4 11 -10 8 -6 -3 -7 1 -4 9 8 22 11 20 29 -14z m-539 -87 c35 -38
64 -71 64 -75 0 -10 -132 43 -153 61 -30 26 -40 50 -26 67 23 28 51 14 115
-53z m583 -17 c-1 -20 -2 -20 -6 -1 -3 11 -10 27 -17 35 -10 13 -9 13 7 1 9
-7 16 -23 16 -35z m-490 -167 c18 -30 0 -46 -34 -31 -24 11 -47 49 -39 64 8
12 59 -12 73 -33z m504 -38 c26 -45 20 -58 -8 -17 -27 40 -29 46 -17 46 4 0
15 -13 25 -29z m2436 1 c-24 -19 -70 -40 -56 -26 12 12 62 43 71 43 5 1 -2 -7
-15 -17z m-2830 -64 c9 -15 12 -30 8 -35 -13 -13 -62 21 -65 46 -3 19 0 22 19
19 13 -2 30 -15 38 -30z m530 -35 c2 -2 -2 -3 -10 -3 -8 1 -27 12 -44 27 l-30
25 40 -23 c22 -12 42 -24 44 -26z m2287 -8 c-1 -8 -6 -19 -12 -25 -11 -11
-124 -62 -124 -55 0 2 23 16 51 32 28 15 45 29 39 31 -8 3 -4 10 11 18 31 17
38 17 35 -1z m91 -41 c-3 -3 -12 -4 -19 -1 -8 3 -5 6 6 6 11 1 17 -2 13 -5z
m40 -18 c-8 -12 -24 -26 -37 -33 -12 -6 -25 -15 -29 -21 -3 -5 -33 -31 -66
-57 -33 -26 -73 -61 -89 -76 -15 -16 -32 -27 -36 -24 -5 3 -13 -3 -19 -12 -6
-10 -11 -13 -11 -7 0 16 146 154 164 154 10 0 13 5 9 16 -5 12 -1 15 13 11 13
-4 30 6 54 32 39 41 70 52 47 17z m1130 -11 c0 -8 -4 -12 -9 -9 -4 3 -8 2 -8
-3 0 -4 -13 -17 -28 -27 -23 -16 -22 -13 7 17 19 21 36 37 36 37 1 0 2 -7 2
-15z m-1407 -19 c0 -2 -7 -7 -16 -10 -8 -3 -12 -2 -9 4 6 10 25 14 25 6z
m-2090 -99 c42 -24 76 -37 225 -89 33 -11 65 -25 70 -30 6 -6 1 -6 -15 0 -14
5 -52 17 -85 27 -33 10 -72 24 -87 32 -17 8 -28 9 -28 3 0 -5 6 -10 13 -10 8
0 22 -9 32 -20 10 -11 21 -17 26 -15 4 3 10 1 14 -5 12 -20 -15 -9 -92 36 -92
55 -121 77 -142 107 -14 21 -14 21 5 6 10 -9 39 -28 64 -42z m1015 43 c3 -6
-1 -7 -9 -4 -18 7 -21 14 -7 14 6 0 13 -4 16 -10z m174 -46 c3 -3 -11 -4 -31
-2 -20 1 -35 5 -32 9 4 8 54 2 63 -7z m72 -37 c-1 -4 -1 -11 -1 -17 0 -5 -7
-7 -15 -4 -8 4 -12 11 -8 18 3 6 1 6 -8 -1 -7 -7 -20 -13 -28 -12 -11 0 -12 2
-3 6 6 2 12 11 12 19 0 9 -5 12 -12 8 -6 -4 -8 -3 -4 4 7 11 68 -8 67 -21z
m859 29 c0 -2 -7 -7 -16 -10 -8 -3 -12 -2 -9 4 6 10 25 14 25 6z m-150 -11 c0
-2 -10 -9 -22 -15 -22 -11 -22 -10 -4 4 21 17 26 19 26 11z m-800 -25 c0 -5
-5 -10 -11 -10 -5 0 -7 5 -4 10 3 6 8 10 11 10 2 0 4 -4 4 -10z m640 -21 c5
-6 13 -8 20 -4 9 5 11 4 6 -3 -10 -16 5 -14 28 3 11 8 27 15 35 14 12 0 10 -3
-4 -9 -11 -5 -14 -9 -6 -9 11 -1 11 -4 0 -18 -13 -14 -11 -14 19 1 19 10 36
15 39 12 9 -8 -66 -38 -77 -31 -6 4 -10 3 -10 -2 0 -4 -39 -24 -85 -43 -47
-19 -95 -43 -108 -52 l-22 -18 30 -1 30 -1 -35 -9 c-46 -12 -49 -13 -90 -31
-19 -9 -65 -21 -102 -28 -37 -7 -65 -16 -62 -21 3 -5 0 -9 -7 -9 -7 0 -10 -3
-6 -6 3 -4 -1 -14 -10 -23 -14 -14 -50 -16 -243 -19 -155 -2 -235 0 -255 9
-28 10 -28 12 -10 19 l20 9 -20 1 c-14 2 -11 5 10 10 29 7 29 8 -10 10 -35 2
-37 3 -15 10 23 7 22 8 -10 10 l-35 2 40 12 c25 8 34 14 25 18 -9 3 1 10 26
17 23 6 53 20 67 31 14 11 30 20 36 20 20 0 60 23 55 31 -3 5 10 9 29 9 33 0
54 20 42 40 -5 8 10 12 129 35 45 8 85 11 95 6 25 -13 141 -13 217 0 156 27
211 29 224 8z m1360 -90 c0 -19 -65 -38 -183 -53 -64 -9 -144 -22 -176 -31
-33 -8 -67 -12 -77 -8 -9 3 -15 2 -12 -3 3 -5 -27 -10 -69 -12 -66 -3 -74 -1
-61 11 7 8 45 17 83 21 85 9 259 39 375 65 100 23 120 25 120 10z m280 -32
c-24 -22 -24 -22 -6 0 10 12 15 27 11 35 -7 10 -5 11 6 0 11 -10 9 -16 -11
-35z m-4060 -22 c0 -8 -4 -15 -10 -15 -5 0 -10 7 -10 15 0 8 5 15 10 15 6 0
10 -7 10 -15z m198 -52 c-5 -25 -28 -28 -28 -4 0 12 6 21 16 21 9 0 14 -7 12
-17z m3649 11 c-3 -3 -12 -4 -19 -1 -8 3 -5 6 6 6 11 1 17 -2 13 -5z m-124
-11 c-7 -2 -19 -2 -25 0 -7 3 -2 5 12 5 14 0 19 -2 13 -5z m-1406 -149 c-3 -3
-12 -4 -19 -1 -8 3 -5 6 6 6 11 1 17 -2 13 -5z m-1822 -84 c-5 -8 -11 -8 -17
-2 -6 6 -7 16 -3 22 5 8 11 8 17 2 6 -6 7 -16 3 -22z m1103 -159 c50 -33 92
-66 92 -72 0 -13 -95 -6 -164 12 -41 11 -134 96 -205 187 l-33 42 108 -54 c60
-30 151 -82 202 -115z m-8 113 c69 -5 286 -35 322 -45 78 -20 100 -67 42 -89
-32 -12 -34 -12 -199 52 -71 28 -159 62 -195 75 -36 13 -51 20 -35 17 17 -4
46 -8 65 -10z"/>
<path d="M5489 7569 l-24 -20 30 17 c39 24 40 24 28 24 -6 0 -21 -9 -34 -21z"/>
<path d="M5568 7263 c7 -3 16 -2 19 1 4 3 -2 6 -13 5 -11 0 -14 -3 -6 -6z"/>
<path d="M5638 7263 c6 -2 18 -2 25 0 6 3 1 5 -13 5 -14 0 -19 -2 -12 -5z"/>
<path d="M5733 7263 c9 -2 23 -2 30 0 6 3 -1 5 -18 5 -16 0 -22 -2 -12 -5z"/>
<path d="M5798 7253 c7 -3 16 -2 19 1 4 3 -2 6 -13 5 -11 0 -14 -3 -6 -6z"/>
<path d="M6776 7228 c4 -5 12 -7 20 -4 7 3 16 1 19 -4 4 -6 14 -10 23 -9 12 0
9 4 -8 11 -33 14 -61 17 -54 6z"/>
<path d="M6865 7184 c26 -19 126 -79 150 -88 15 -5 16 -4 5 9 -7 9 -15 13 -17
11 -3 -3 -27 11 -55 30 -52 37 -123 70 -83 38z"/>
<path d="M6763 7127 c0 -8 6 -14 14 -14 9 0 10 4 2 14 -6 7 -12 13 -14 13 -1
0 -2 -6 -2 -13z"/>
<path d="M6430 6689 c0 -4 7 -22 15 -40 8 -19 14 -27 14 -19 0 14 -28 72 -29
59z"/>
<path d="M6721 6664 c0 -11 3 -14 6 -6 3 7 2 16 -1 19 -3 4 -6 -2 -5 -13z"/>
<path d="M7053 6651 c0 -11 5 -18 9 -15 4 3 5 11 1 19 -7 21 -12 19 -10 -4z"/>
<path d="M6730 6619 c0 -13 5 -31 10 -39 7 -11 8 -5 4 20 -8 43 -14 51 -14 19z"/>
<path d="M6464 6088 l-19 -23 23 19 c21 18 27 26 19 26 -2 0 -12 -10 -23 -22z"/>
<path d="M4498 7453 c12 -2 30 -2 40 0 9 3 -1 5 -23 4 -22 0 -30 -2 -17 -4z"/>
<path d="M4423 7443 c9 -2 25 -2 35 0 9 3 1 5 -18 5 -19 0 -27 -2 -17 -5z"/>
<path d="M3445 6739 c-4 -6 -5 -12 -2 -15 2 -3 7 2 10 11 7 17 1 20 -8 4z"/>
<path d="M7154 7202 c3 -16 8 -18 37 -13 18 2 4 24 -18 27 -15 3 -20 -1 -19
-14z"/>
<path d="M2765 5788 c-10 -46 -31 -119 -46 -163 -15 -44 -32 -101 -38 -126 -6
-25 -13 -53 -17 -62 -3 -9 -2 -17 4 -17 5 0 13 12 17 28 3 15 19 55 35 89 16
34 31 77 34 95 3 18 13 77 22 131 9 54 14 100 12 102 -3 3 -13 -32 -23 -77z"/>
<path d="M2722 5170 c0 -19 2 -27 5 -17 2 9 2 25 0 35 -3 9 -5 1 -5 -18z"/>
<path d="M6223 6020 c0 -30 2 -43 4 -27 2 15 2 39 0 55 -2 15 -4 2 -4 -28z"/>
<path d="M6193 5995 c0 -22 2 -30 4 -17 2 12 2 30 0 40 -3 9 -5 -1 -4 -23z"/>
<path d="M6202 5860 c0 -14 2 -19 5 -12 2 6 2 18 0 25 -3 6 -5 1 -5 -13z"/>
<path d="M6059 6338 c-7 -29 -5 -36 7 -31 16 6 18 19 4 28 -5 3 -10 5 -11 3z"/>
<path d="M3062 4950 c0 -14 2 -19 5 -12 2 6 2 18 0 25 -3 6 -5 1 -5 -13z"/>
<path d="M4222 5550 c0 -14 2 -19 5 -12 2 6 2 18 0 25 -3 6 -5 1 -5 -13z"/>
<path d="M4213 5445 c0 -38 2 -53 4 -32 2 20 2 52 0 70 -2 17 -4 1 -4 -38z"/>
<path d="M4275 5410 c-4 -12 -5 -24 -2 -27 3 -2 8 5 12 17 4 12 5 24 2 27 -3
2 -8 -5 -12 -17z"/>
<path d="M3529 5363 c-13 -16 -12 -17 4 -4 9 7 17 15 17 17 0 8 -8 3 -21 -13z"/>
<path d="M4211 5354 c0 -11 3 -14 6 -6 3 7 2 16 -1 19 -3 4 -6 -2 -5 -13z"/>
<path d="M4262 5340 c0 -14 2 -19 5 -12 2 6 2 18 0 25 -3 6 -5 1 -5 -13z"/>
<path d="M4101 5262 c-6 -12 -11 -29 -10 -39 0 -11 6 -6 15 16 16 37 12 55 -5
23z"/>
<path d="M3700 5168 c0 -4 4 -8 9 -8 6 0 12 4 15 8 3 5 -1 9 -9 9 -8 0 -15 -4
-15 -9z"/>
<path d="M3689 5133 c-13 -16 -12 -17 4 -4 16 13 21 21 13 21 -2 0 -10 -8 -17
-17z"/>
<path d="M3486 5123 c-6 -14 -5 -15 5 -6 7 7 10 15 7 18 -3 3 -9 -2 -12 -12z"/>
<path d="M3643 5038 c-11 -19 -13 -39 -1 -32 5 3 7 9 4 12 -3 3 -1 11 5 19 6
7 9 13 6 13 -3 0 -9 -6 -14 -12z"/>
<path d="M3956 4779 c3 -5 10 -6 16 -3 7 5 9 2 6 -8 -4 -8 -2 -21 3 -29 7 -10
9 -6 7 15 -2 19 -9 30 -21 32 -9 1 -15 -2 -11 -7z"/>
<path d="M4266 4750 c13 -27 92 -136 110 -150 9 -8 -5 14 -32 50 -27 36 -57
76 -67 90 -10 14 -15 18 -11 10z"/>
<path d="M4006 4691 c19 -37 20 -38 20 -6 0 13 -2 22 -5 20 -2 -3 -10 0 -17 6
-10 8 -9 2 2 -20z"/>
<path d="M3262 4570 c0 -19 2 -27 5 -17 2 9 2 25 0 35 -3 9 -5 1 -5 -18z"/>
<path d="M3772 4470 c0 -14 2 -19 5 -12 2 6 2 18 0 25 -3 6 -5 1 -5 -13z"/>
<path d="M3780 4373 c-1 -32 -3 -86 -5 -120 -6 -74 29 -185 122 -388 33 -71
66 -145 73 -163 13 -34 35 -57 23 -25 -3 10 -9 23 -13 28 -4 6 -17 37 -30 70
-13 33 -28 66 -33 72 -5 7 -7 20 -3 28 3 9 2 14 -3 11 -5 -3 -12 1 -15 10 -9
23 -8 26 7 19 6 -4 2 2 -10 12 -16 13 -21 25 -17 43 5 20 3 22 -5 10 -11 -15
-12 -13 -15 23 -1 6 -5 15 -11 19 -6 5 -5 8 3 8 7 0 10 5 7 10 -4 6 -11 7 -17
4 -6 -4 -8 1 -4 13 9 28 -3 60 -16 41 -6 -9 -8 -1 -6 22 2 24 -1 34 -9 33 -16
-4 -17 3 -13 155 1 67 0 122 -4 122 -3 0 -6 -26 -6 -57z"/>
<path d="M3191 4354 c0 -11 3 -14 6 -6 3 7 2 16 -1 19 -3 4 -6 -2 -5 -13z"/>
<path d="M3356 4335 c2 -11 4 -30 4 -43 0 -13 4 -21 8 -18 5 3 9 -8 10 -24 0
-16 5 -37 11 -47 8 -14 9 -8 5 22 -3 22 -8 47 -11 55 -3 8 -5 29 -4 45 1 22
-1 26 -8 16 -8 -12 -10 -12 -14 0 -2 8 -3 5 -1 -6z"/>
<path d="M3811 4285 c1 -19 18 -51 18 -35 0 8 -4 22 -9 30 -5 8 -9 11 -9 5z"/>
<path d="M3826 4217 c3 -10 9 -15 12 -12 3 3 0 11 -7 18 -10 9 -11 8 -5 -6z"/>
<path d="M3845 4141 c-3 -5 -2 -12 3 -15 5 -3 9 1 9 9 0 17 -3 19 -12 6z"/>
<path d="M3865 4085 c3 -16 7 -41 10 -55 6 -33 95 -210 105 -210 8 0 -27 92
-51 134 -6 10 -12 26 -14 35 -2 9 -15 41 -29 71 -19 40 -24 47 -21 25z"/>
<path d="M3231 4024 c0 -11 3 -14 6 -6 3 7 2 16 -1 19 -3 4 -6 -2 -5 -13z"/>
<path d="M3710 3657 c0 -8 62 -107 67 -107 2 0 -3 14 -12 30 -16 31 -3 43 14
13 6 -10 11 -13 11 -7 0 17 -27 37 -40 29 -5 -3 -10 0 -10 8 0 8 -7 20 -15 27
-8 7 -15 10 -15 7z"/>
<path d="M4020 3620 c12 -16 24 -30 26 -30 3 0 -4 14 -16 30 -12 17 -24 30
-26 30 -3 0 4 -13 16 -30z"/>
<path d="M4008 3552 c58 -75 122 -134 200 -183 54 -35 36 -17 -41 40 -39 29
-101 89 -137 133 -86 106 -99 112 -22 10z"/>
<path d="M4783 3593 c15 -2 39 -2 55 0 15 2 2 4 -28 4 -30 0 -43 -2 -27 -4z"/>
<path d="M4100 3546 c0 -2 7 -7 16 -10 8 -3 12 -2 9 4 -6 10 -25 14 -25 6z"/>
<path d="M4364 3492 c4 -6 24 -21 46 -33 22 -12 36 -27 33 -33 -3 -6 -3 -8 2
-4 10 10 47 -11 40 -22 -8 -13 96 -63 206 -99 86 -28 256 -59 369 -67 l45 -3
-45 9 c-25 5 -79 16 -120 23 -41 8 -64 15 -50 16 14 0 56 -6 95 -14 38 -8 88
-15 110 -15 37 0 38 -1 19 -14 -11 -8 -40 -16 -65 -19 -24 -2 1 -4 56 -4 55
-1 127 3 160 8 33 5 78 10 100 10 30 1 33 3 13 6 -16 2 -28 9 -28 15 0 5 6 8
14 5 9 -4 19 5 26 24 7 16 16 27 19 24 4 -2 8 3 8 11 0 11 -7 14 -25 9 -16 -4
-21 -2 -17 6 6 8 2 8 -13 0 -11 -6 -27 -9 -34 -6 -8 3 -43 -2 -79 -10 -35 -9
-74 -19 -86 -22 -13 -3 -23 -10 -23 -15 0 -6 -9 -8 -20 -5 -11 3 -18 1 -14 -4
8 -14 -30 -11 -151 12 -60 11 -128 23 -150 26 -22 4 -53 14 -70 23 -16 9 -55
23 -85 30 -56 13 -154 57 -225 101 -66 42 -69 43 -61 31z"/>
<path d="M4015 3470 c10 -11 20 -20 23 -20 3 0 -3 9 -13 20 -10 11 -20 20 -23
20 -3 0 3 -9 13 -20z"/>
<path d="M4062 3434 c10 -10 20 -16 22 -13 3 3 -5 11 -17 18 -21 13 -21 12 -5
-5z"/>
<path d="M5478 3445 c-2 -3 -45 -13 -94 -22 -49 -9 -81 -19 -71 -21 23 -5 179
27 192 39 5 6 3 9 -6 9 -9 0 -18 -2 -21 -5z"/>
<path d="M5548 3437 c-30 -12 -40 -31 -10 -20 22 8 59 33 47 32 -6 -1 -22 -6
-37 -12z"/>
<path d="M4355 3393 c37 -20 154 -63 169 -62 6 0 -34 18 -88 40 -107 42 -129
48 -81 22z"/>
<path d="M5428 3383 c7 -3 16 -2 19 1 4 3 -2 6 -13 5 -11 0 -14 -3 -6 -6z"/>
<path d="M4390 3264 c151 -83 264 -134 284 -128 15 4 17 3 8 -4 -23 -15 7 -21
89 -16 71 5 109 14 55 14 -14 0 -29 7 -32 15 -4 8 -16 15 -28 16 -11 0 -16 3
-10 5 6 3 44 0 85 -5 104 -14 344 -15 469 -1 96 10 276 47 240 49 -8 0 -44 -6
-80 -15 -90 -22 -404 -34 -580 -23 -145 9 -322 44 -384 76 -16 8 -45 16 -65
17 -20 2 -50 10 -68 19 -62 32 -47 16 17 -19z"/>
<path d="M5770 3260 c-8 -5 -10 -10 -5 -10 6 0 17 5 25 10 8 5 11 10 5 10 -5
0 -17 -5 -25 -10z"/>
<path d="M5535 3234 c-40 -14 -40 -14 -5 -9 19 3 39 10 44 15 12 12 12 12 -39
-6z"/>
<path d="M5825 3216 c-22 -11 -69 -29 -105 -38 -64 -18 -64 -18 -15 -13 46 6
175 57 175 69 0 9 -12 5 -55 -18z"/>
<path d="M5023 3193 c15 -2 39 -2 55 0 15 2 2 4 -28 4 -30 0 -43 -2 -27 -4z"/>
<path d="M4590 3126 c0 -2 7 -7 16 -10 8 -3 12 -2 9 4 -6 10 -25 14 -25 6z"/>
<path d="M4646 3093 c10 -7 23 -13 28 -12 6 0 5 3 -2 6 -6 2 -10 8 -8 12 3 4
-4 7 -15 7 -19 0 -19 -1 -3 -13z"/>
<path d="M3614 5698 l-19 -23 23 19 c21 18 27 26 19 26 -2 0 -12 -10 -23 -22z"/>
<path d="M3189 5673 l-24 -28 28 24 c25 23 32 31 24 31 -2 0 -14 -12 -28 -27z"/>
<path d="M3109 5593 c-13 -16 -12 -17 4 -4 9 7 17 15 17 17 0 8 -8 3 -21 -13z"/>
<path d="M7010 4755 c0 -5 5 -17 10 -25 5 -8 10 -10 10 -5 0 6 -5 17 -10 25
-5 8 -10 11 -10 5z"/>
<path d="M7183 4550 c0 -25 2 -35 4 -22 2 12 2 32 0 45 -2 12 -4 2 -4 -23z"/>
<path d="M6917 4301 c-4 -17 -3 -21 5 -13 5 5 8 16 6 23 -3 8 -7 3 -11 -10z"/>
<path d="M6609 3743 c-13 -14 -17 -23 -9 -18 8 5 12 4 7 0 -4 -5 -14 -10 -22
-11 -11 -2 -13 5 -9 24 l5 27 -21 -27 c-12 -16 -27 -28 -33 -28 -6 0 -3 6 7
13 15 11 15 14 4 14 -18 0 -71 -103 -62 -119 5 -7 2 -8 -6 -3 -10 6 -12 4 -7
-9 4 -9 3 -15 -2 -12 -7 5 -61 -102 -61 -121 0 -3 27 20 61 51 33 31 64 54 69
51 10 -6 41 35 34 46 -2 4 1 11 7 15 8 5 9 3 4 -6 -5 -9 -4 -11 3 -6 7 4 12
12 12 18 0 6 8 20 18 31 12 15 13 18 2 12 -13 -8 -13 -7 -1 8 7 9 10 17 6 17
-4 0 -2 7 5 15 7 8 9 15 5 15 -4 0 -2 7 5 15 21 26 5 16 -21 -12z"/>
<path d="M6209 3463 c-13 -16 -12 -17 4 -4 16 13 21 21 13 21 -2 0 -10 -8 -17
-17z"/>
<path d="M7401 4334 c0 -11 3 -14 6 -6 3 7 2 16 -1 19 -3 4 -6 -2 -5 -13z"/>
<path d="M7370 4131 c0 -25 6 -27 13 -6 4 8 2 17 -3 20 -6 4 -10 -3 -10 -14z"/>
<path d="M3340 3281 c29 -15 106 -40 90 -29 -3 2 -18 14 -35 28 -16 14 -23 17
-16 8 16 -22 5 -22 -29 -3 -14 8 -29 14 -35 14 -5 0 6 -8 25 -18z"/>
<path d="M5068 2673 c6 -2 18 -2 25 0 6 3 1 5 -13 5 -14 0 -19 -2 -12 -5z"/>
</g>
</svg>
